Coordinates
version=1
nRows=16
nColumns=63
inDegrees=yes

Units are S.I. units (second, meters, Newtons, ...)
If the header above contains a line with 'inDegrees', this indicates whether rotational values are in degrees (yes) or radians (no).

endheader
time	pelvis_tilt	pelvis_list	pelvis_rotation	pelvis_tx	pelvis_ty	pelvis_tz	hip_flexion_r	hip_adduction_r	hip_rotation_r	knee_angle_r	knee_angle_r_beta	ankle_angle_r	subtalar_angle_r	mtp_angle_r	hip_flexion_l	hip_adduction_l	hip_rotation_l	knee_angle_l	knee_angle_l_beta	ankle_angle_l	subtalar_angle_l	mtp_angle_l	L5_S1_Flex_Ext	L5_S1_Lat_Bending	L5_S1_axial_rotation	L4_L5_Flex_Ext	L4_L5_Lat_Bending	L4_L5_axial_rotation	L3_L4_Flex_Ext	L3_L4_Lat_Bending	L3_L4_axial_rotation	L2_L3_Flex_Ext	L2_L3_Lat_Bending	L2_L3_axial_rotation	L1_L2_Flex_Ext	L1_L2_Lat_Bending	L1_L2_axial_rotation	L1_T12_Flex_Ext	L1_T12_Lat_Bending	L1_T12_axial_rotation	Abs_r3	Abs_r2	Abs_r1	Abs_t1	Abs_t2	neck_flexion	neck_bending	neck_rotation	arm_flex_r	arm_add_r	arm_rot_r	elbow_flex_r	pro_sup_r	wrist_flex_r	wrist_dev_r	arm_flex_l	arm_add_l	arm_rot_l	elbow_flex_l	pro_sup_l	wrist_flex_l	wrist_dev_l
1.000000	5.476147	-2.812236	102.801928	0.122631	0.619497	0.814451	3.234426	1.244649	-11.614743	2.261762	0.039475	29.665495	12.691622	0.000000	5.549901	-0.032040	19.150949	1.318293	0.023009	24.420414	-13.907258	0.000000	0.170981	0.428894	-1.341010	0.317529	0.570429	-1.424823	0.280905	1.042812	-1.424823	0.195414	1.042812	-1.173383	0.158773	0.874600	-1.089570	0.097699	0.664356	-1.005757	1.221301	4.851732	-7.458293	0.000000	0.000000	24.332048	0.527031	15.780582	23.425683	-1.728626	106.961323	24.891998	21.135493	0.658134	-8.218998	15.372169	0.808197	64.551014	28.713368	67.218912	-3.832081	-6.185573
1.017544	5.615109	-2.754504	102.540996	0.122569	0.619643	0.814816	3.300639	1.391157	-11.612900	2.303032	0.040195	29.703167	13.070058	0.000000	5.539069	-0.194794	18.410771	1.339228	0.023374	24.827919	-13.121699	0.000000	0.160950	0.456569	-1.351431	0.298901	0.607237	-1.435896	0.264425	1.110103	-1.435896	0.183950	1.110103	-1.182502	0.149458	0.931036	-1.098038	0.091967	0.707226	-1.013573	1.149652	5.164804	-7.516255	0.000000	0.000000	24.240697	0.454197	16.236143	23.222737	-2.046025	104.758654	25.366669	24.818407	0.068176	-8.001589	15.174900	0.785036	63.585365	28.943992	66.914761	-3.509068	-5.996938
1.035088	5.731798	-2.748730	102.227249	0.122611	0.619705	0.815477	3.479374	1.495344	-11.641619	2.417046	0.042185	29.762179	13.520183	0.000000	5.591884	-0.319002	17.905578	1.356855	0.023682	25.091855	-12.787358	0.000000	0.153223	0.479718	-1.350075	0.284550	0.638024	-1.434455	0.251730	1.166385	-1.434455	0.175118	1.166385	-1.181316	0.142283	0.978240	-1.096936	0.087551	0.743083	-1.012556	1.094455	5.426662	-7.508713	0.000000	0.000000	24.154432	0.406621	16.590688	23.000832	-2.339510	102.544576	25.839760	28.271419	-0.459737	-7.744601	14.960434	0.751816	62.492645	29.234371	66.596154	-3.230253	-5.756231
1.052632	5.801606	-2.799607	101.865969	0.122773	0.619668	0.816466	3.776291	1.527886	-11.690822	2.620509	0.045737	29.829813	13.999176	0.000000	5.732847	-0.381435	17.349347	1.414686	0.024691	25.302792	-12.494096	0.000000	0.147658	0.494037	-1.331545	0.274216	0.657069	-1.414767	0.242588	1.201201	-1.414767	0.168759	1.201201	-1.165102	0.137115	1.007440	-1.081881	0.084372	0.765263	-0.998659	1.054708	5.588644	-7.405656	0.000000	0.000000	24.086422	0.397503	16.739855	22.720291	-2.631210	100.008337	26.332706	31.645871	-0.927572	-7.384878	14.754078	0.702950	61.282918	29.611538	66.309642	-2.994362	-5.464457
1.070175	5.829211	-2.892486	101.478441	0.123011	0.619543	0.817740	4.149512	1.498906	-11.752335	2.876590	0.050206	29.883408	14.461148	0.000000	5.931475	-0.387878	16.774596	1.487357	0.025959	25.441642	-12.254425	0.000000	0.143305	0.501263	-1.300697	0.266132	0.666679	-1.381991	0.235436	1.218770	-1.381991	0.163784	1.218770	-1.138110	0.133073	1.022175	-1.056816	0.081885	0.776456	-0.975523	1.023616	5.670383	-7.234087	0.000000	0.000000	24.018965	0.433497	16.790294	22.440082	-2.930093	97.346750	26.850827	34.762176	-1.310834	-6.979216	14.588421	0.633320	60.030248	30.065921	66.085644	-2.804921	-5.249181
1.087719	5.795357	-3.039891	101.076378	0.123344	0.619313	0.819325	4.622525	1.382858	-11.804388	3.216498	0.056138	29.924341	14.848699	0.000000	6.215958	-0.312935	16.219111	1.608533	0.028074	25.476228	-12.135504	0.000000	0.141672	0.497303	-1.258420	0.263099	0.661414	-1.337071	0.232753	1.209144	-1.337071	0.161917	1.209144	-1.101117	0.131557	1.014101	-1.022466	0.080951	0.770323	-0.943815	1.011949	5.625596	-6.998952	0.000000	0.000000	23.969231	0.570017	16.648983	22.207741	-3.216610	94.759811	27.384978	37.187981	-1.613008	-6.622354	14.468724	0.523295	58.725552	30.657339	65.847678	-2.682996	-5.026572
1.105263	5.695609	-3.246761	100.668824	0.123768	0.618971	0.821183	5.190519	1.176109	-11.843853	3.628480	0.063329	29.952645	15.162555	0.000000	6.586749	-0.154125	15.627552	1.773699	0.030957	25.436494	-12.034419	0.000000	0.143831	0.480744	-1.198653	0.267108	0.639389	-1.273569	0.236299	1.168880	-1.273569	0.164384	1.168880	-1.048821	0.133561	0.980332	-0.973906	0.082185	0.744672	-0.898990	1.027368	5.438268	-6.666549	0.000000	0.000000	23.972764	0.790860	16.218486	21.933331	-3.494992	91.919964	27.994630	39.448189	-1.746027	-6.181113	14.402506	0.383142	57.363289	31.401062	65.714673	-2.581378	-4.746595
1.122807	5.544517	-3.483825	100.268379	0.124238	0.618567	0.823253	5.808700	0.902944	-11.854624	4.086565	0.071324	29.961997	15.381455	0.000000	7.004115	0.070680	15.077606	1.965648	0.034307	25.304891	-12.048304	0.000000	0.147312	0.454691	-1.126337	0.273573	0.604739	-1.196733	0.242019	1.105536	-1.196733	0.168363	1.105536	-0.985545	0.136794	0.927206	-0.915149	0.084174	0.704317	-0.844753	1.052234	5.143558	-6.264348	0.000000	0.000000	24.018619	1.080178	15.562957	21.707187	-3.803524	89.051274	28.679051	41.500741	-1.725068	-5.847510	14.413693	0.193002	56.050399	32.269045	65.667250	-2.516284	-4.569664
1.140351	5.344238	-3.749888	99.886589	0.124763	0.618105	0.825491	6.472094	0.569824	-11.860551	4.582036	0.079972	29.979007	15.556401	0.000000	7.471231	0.354643	14.521486	2.191698	0.038252	25.133909	-12.079858	0.000000	0.152889	0.418869	-1.043066	0.283930	0.557095	-1.108257	0.251181	1.018438	-1.108257	0.174737	1.018438	-0.912682	0.141973	0.854157	-0.847491	0.087361	0.648828	-0.782299	1.092071	4.738327	-5.801218	0.000000	0.000000	24.142023	1.421971	14.637734	21.489984	-4.135627	86.107635	29.499357	43.319403	-1.510455	-5.496836	14.466684	-0.051076	54.751336	33.314498	65.765643	-2.462966	-4.329366
1.157895	5.108356	-4.029505	99.534987	0.125308	0.617625	0.827817	7.149119	0.200079	-11.805295	5.085318	0.088756	30.003073	15.624638	0.000000	7.963296	0.679840	13.919611	2.434859	0.042496	24.956403	-12.047726	0.000000	0.159887	0.376204	-0.956534	0.296926	0.500351	-1.016318	0.262678	0.914701	-1.016318	0.182735	0.914701	-0.836968	0.148471	0.767154	-0.777184	0.091359	0.582739	-0.717401	1.142057	4.255690	-5.319958	0.000000	0.000000	24.353060	1.800568	13.517404	21.285271	-4.500389	83.116948	30.463495	45.043793	-1.138570	-5.174239	14.526343	-0.362911	53.518705	34.570821	65.874244	-2.439255	-4.015503
1.175439	4.853248	-4.309749	99.240051	0.125826	0.617147	0.830159	7.817881	-0.188089	-11.788769	5.584563	0.097469	30.056773	15.705104	0.000000	8.465235	1.028916	13.408656	2.688972	0.046931	24.752585	-12.100924	0.000000	0.168218	0.329078	-0.875030	0.312398	0.437673	-0.929720	0.276366	0.800119	-0.929720	0.192257	0.800119	-0.765652	0.156207	0.671055	-0.710962	0.096120	0.509741	-0.656273	1.201566	3.722592	-4.866656	0.000000	0.000000	24.631183	2.192893	12.224345	21.099496	-4.893576	80.249280	31.612432	46.438160	-0.606537	-4.859026	14.538193	-0.745006	52.212257	36.070461	66.194734	-2.402698	-3.531183
1.192982	4.592682	-4.571041	99.007404	0.126324	0.616711	0.832422	8.444504	-0.570813	-11.813399	6.060785	0.105781	30.131151	15.796548	0.000000	8.951430	1.379990	12.927964	2.951622	0.051516	24.567350	-12.114785	0.000000	0.176333	0.279902	-0.802635	0.327467	0.372269	-0.852800	0.289697	0.680553	-0.852800	0.201531	0.680553	-0.702306	0.163743	0.570776	-0.652141	0.100756	0.433568	-0.601976	1.259527	3.166305	-4.464014	0.000000	0.000000	24.958570	2.568080	10.813270	20.922041	-5.321024	77.464331	32.980286	47.501015	0.049835	-4.474257	14.483844	-1.203938	50.836553	37.816259	66.800248	-2.309951	-2.898287
1.210526	4.344333	-4.805112	98.849158	0.126753	0.616329	0.834532	9.003290	-0.929336	-11.854110	6.490082	0.113273	30.195374	15.856219	0.000000	9.400065	1.715808	12.549823	3.201095	0.055870	24.382745	-12.159384	0.000000	0.184234	0.231813	-0.745084	0.342141	0.308311	-0.791652	0.302678	0.563630	-0.791652	0.210561	0.563630	-0.651948	0.171080	0.472713	-0.605381	0.105271	0.359078	-0.558813	1.315966	2.622314	-4.143932	0.000000	0.000000	25.309672	2.908478	9.338195	20.742025	-5.775071	74.728037	34.595164	48.190340	0.751454	-3.932611	14.320899	-1.721972	49.330736	39.825763	67.671662	-2.101849	-2.110321
1.228070	4.113804	-4.989978	98.747871	0.127134	0.616040	0.836472	9.477701	-1.254631	-11.955598	6.886550	0.120193	30.261141	15.938442	0.000000	9.798608	2.023141	12.162364	3.461497	0.060415	24.246285	-12.105077	0.000000	0.188841	0.186072	-0.697474	0.350696	0.247476	-0.741066	0.310246	0.452416	-0.741066	0.215826	0.452416	-0.610290	0.175358	0.379439	-0.566698	0.107904	0.288226	-0.523105	1.348871	2.104888	-3.879140	0.000000	0.000000	25.628834	3.206956	7.799633	20.606532	-6.269431	72.091132	36.409527	48.445282	1.567071	-3.350299	14.116219	-2.322077	47.872555	42.038847	68.665616	-1.779942	-1.376860
1.245614	3.914934	-5.131831	98.719164	0.127426	0.615836	0.838157	9.856921	-1.534533	-12.114609	7.230643	0.126199	30.305060	16.011335	0.000000	10.137179	2.292569	11.884275	3.708599	0.064727	24.115052	-12.063437	0.000000	0.192291	0.144948	-0.663971	0.357103	0.192781	-0.705470	0.315915	0.352428	-0.705470	0.219769	0.352428	-0.580975	0.178561	0.295579	-0.539477	0.109875	0.224525	-0.497979	1.373515	1.639686	-3.692810	0.000000	0.000000	25.868909	3.469064	6.269955	20.471768	-6.787994	69.489339	38.453292	48.487085	2.369580	-2.680249	13.827086	-2.964643	46.417800	44.464429	69.662117	-1.322050	-0.655481
1.263158	3.754816	-5.222821	98.741621	0.127664	0.615745	0.839522	10.125488	-1.756755	-12.309911	7.510925	0.131090	30.314436	16.070471	0.000000	10.394171	2.510686	11.716465	3.927905	0.068555	23.979449	-12.046248	0.000000	0.193670	0.110190	-0.642514	0.359664	0.146552	-0.682671	0.318180	0.267915	-0.682671	0.221345	0.267915	-0.562199	0.179842	0.224699	-0.522042	0.110663	0.170684	-0.481885	1.383363	1.246487	-3.573468	0.000000	0.000000	25.992963	3.703210	4.829834	20.325493	-7.331721	66.921757	40.733644	48.482400	3.101896	-1.915236	13.449723	-3.640587	45.002502	47.100442	70.527367	-0.747603	0.015044
